<mxfile host="65bd71144e">
    <diagram id="duXvSguw2q8PD_XZzSnz" name="Página-1">
        <mxGraphModel dx="1618" dy="647" grid="1" gridSize="10" guides="1" tooltips="1" connect="1" arrows="1" fold="1" page="1" pageScale="1" pageWidth="827" pageHeight="1169" math="0" shadow="0">
            <root>
                <mxCell id="0"/>
                <mxCell id="1" parent="0"/>
                <mxCell id="2" value="cliente" style="swimlane;fontStyle=0;childLayout=stackLayout;horizontal=1;startSize=26;fillColor=none;horizontalStack=0;resizeParent=1;resizeParentMax=0;resizeLast=0;collapsible=1;marginBottom=0;" parent="1" vertex="1">
                    <mxGeometry x="530" y="240" width="370" height="140" as="geometry"/>
                </mxCell>
                <mxCell id="3" value="cliente_id    INTEGER (PK)" style="text;strokeColor=none;fillColor=none;align=left;verticalAlign=top;spacingLeft=4;spacingRight=4;overflow=hidden;rotatable=0;points=[[0,0.5],[1,0.5]];portConstraint=eastwest;" parent="2" vertex="1">
                    <mxGeometry y="26" width="370" height="26" as="geometry"/>
                </mxCell>
                <mxCell id="4" value="cliente_name    VARCHAR(50)    NOT NULL" style="text;strokeColor=none;fillColor=none;align=left;verticalAlign=top;spacingLeft=4;spacingRight=4;overflow=hidden;rotatable=0;points=[[0,0.5],[1,0.5]];portConstraint=eastwest;" parent="2" vertex="1">
                    <mxGeometry y="52" width="370" height="26" as="geometry"/>
                </mxCell>
                <mxCell id="5" value="cliente_telf      VARCHAR(12)    NOT NULL     UNIQUE&#10;&#10;cliente_recurente    BOOLEAN    NOT NULL&#10;&#10;&#10;" style="text;strokeColor=none;fillColor=none;align=left;verticalAlign=top;spacingLeft=4;spacingRight=4;overflow=hidden;rotatable=0;points=[[0,0.5],[1,0.5]];portConstraint=eastwest;" parent="2" vertex="1">
                    <mxGeometry y="78" width="370" height="62" as="geometry"/>
                </mxCell>
                <mxCell id="19" value="cotizacion" style="swimlane;fontStyle=0;childLayout=stackLayout;horizontal=1;startSize=26;fillColor=none;horizontalStack=0;resizeParent=1;resizeParentMax=0;resizeLast=0;collapsible=1;marginBottom=0;" parent="1" vertex="1">
                    <mxGeometry x="60" y="120" width="310" height="230" as="geometry"/>
                </mxCell>
                <mxCell id="20" value="cotizacion_id    INTEGER (PK)" style="text;strokeColor=none;fillColor=none;align=left;verticalAlign=top;spacingLeft=4;spacingRight=4;overflow=hidden;rotatable=0;points=[[0,0.5],[1,0.5]];portConstraint=eastwest;" parent="19" vertex="1">
                    <mxGeometry y="26" width="310" height="26" as="geometry"/>
                </mxCell>
                <mxCell id="21" value="cotizacion_concepto    TEXT    NOT NULL" style="text;strokeColor=none;fillColor=none;align=left;verticalAlign=top;spacingLeft=4;spacingRight=4;overflow=hidden;rotatable=0;points=[[0,0.5],[1,0.5]];portConstraint=eastwest;" parent="19" vertex="1">
                    <mxGeometry y="52" width="310" height="26" as="geometry"/>
                </mxCell>
                <mxCell id="22" value="cotizacion_encargado     VARCHAR(35)    NOT NULL&#10;&#10;cotizacion_pagoTarjeta    BOOLEAN    NOT NULL&#10;&#10;cotizacion_total    DECIMAL(12,2)    NOT NULL&#10;&#10;cliente_id INTEGER (FK)&#10;" style="text;strokeColor=none;fillColor=none;align=left;verticalAlign=top;spacingLeft=4;spacingRight=4;overflow=hidden;rotatable=0;points=[[0,0.5],[1,0.5]];portConstraint=eastwest;" parent="19" vertex="1">
                    <mxGeometry y="78" width="310" height="152" as="geometry"/>
                </mxCell>
                <mxCell id="24" value="obra" style="swimlane;fontStyle=0;childLayout=stackLayout;horizontal=1;startSize=26;fillColor=none;horizontalStack=0;resizeParent=1;resizeParentMax=0;resizeLast=0;collapsible=1;marginBottom=0;" parent="1" vertex="1">
                    <mxGeometry x="60" y="520" width="310" height="170" as="geometry"/>
                </mxCell>
                <mxCell id="25" value="obra_id    INTEGER (PK)    " style="text;strokeColor=none;fillColor=none;align=left;verticalAlign=top;spacingLeft=4;spacingRight=4;overflow=hidden;rotatable=0;points=[[0,0.5],[1,0.5]];portConstraint=eastwest;" parent="24" vertex="1">
                    <mxGeometry y="26" width="310" height="26" as="geometry"/>
                </mxCell>
                <mxCell id="26" value="obra_arquitecto    VARCHAR(35)    NOT NULL" style="text;strokeColor=none;fillColor=none;align=left;verticalAlign=top;spacingLeft=4;spacingRight=4;overflow=hidden;rotatable=0;points=[[0,0.5],[1,0.5]];portConstraint=eastwest;" parent="24" vertex="1">
                    <mxGeometry y="52" width="310" height="26" as="geometry"/>
                </mxCell>
                <mxCell id="27" value="obra_area     DECIMAL(7,3)    NOT NULL&#10;&#10;obra_direccion    TEXT    NOT NULL&#10;&#10;obra_imgLink   TEXT   NOT NULL&#10;&#10;&#10;" style="text;strokeColor=none;fillColor=none;align=left;verticalAlign=top;spacingLeft=4;spacingRight=4;overflow=hidden;rotatable=0;points=[[0,0.5],[1,0.5]];portConstraint=eastwest;" parent="24" vertex="1">
                    <mxGeometry y="78" width="310" height="92" as="geometry"/>
                </mxCell>
                <mxCell id="28" value="obra_material" style="swimlane;fontStyle=0;childLayout=stackLayout;horizontal=1;startSize=26;fillColor=none;horizontalStack=0;resizeParent=1;resizeParentMax=0;resizeLast=0;collapsible=1;marginBottom=0;" parent="1" vertex="1">
                    <mxGeometry x="550" y="490" width="310" height="360" as="geometry"/>
                </mxCell>
                <mxCell id="29" value="obra_material_id    INTEGER (PK)    " style="text;strokeColor=none;fillColor=none;align=left;verticalAlign=top;spacingLeft=4;spacingRight=4;overflow=hidden;rotatable=0;points=[[0,0.5],[1,0.5]];portConstraint=eastwest;" parent="28" vertex="1">
                    <mxGeometry y="26" width="310" height="26" as="geometry"/>
                </mxCell>
                <mxCell id="30" value="obra_material_arena    DECIMAL(12,2) NOT NULL" style="text;strokeColor=none;fillColor=none;align=left;verticalAlign=top;spacingLeft=4;spacingRight=4;overflow=hidden;rotatable=0;points=[[0,0.5],[1,0.5]];portConstraint=eastwest;" parent="28" vertex="1">
                    <mxGeometry y="52" width="310" height="26" as="geometry"/>
                </mxCell>
                <mxCell id="31" value="obra_material_ladrillos     DECIMAL(12,2) NOT NULL&#10;&#10;obra_material_ceramica    DECIMAL(12,2)    NOT NULL&#10;&#10;obra_material_pintura   DECIMAL(12,2)   NOT NULL&#10;&#10;obra_material_ventanas     DECIMAL(12,2)    NOT NULL&#10;&#10;obra_material_puertas   DECIMAL(12,2)    NOT NULL&#10;&#10;obra_material_cemento  DECIMAL(12,2)   NOT NULL&#10;&#10;obra_material_decoraciones     DECIMAL(12,2)    NOT NULL&#10;&#10;obra_material_cableado    DECIMAL(12,2)    NOT NULL&#10;&#10;obra_material_extras   DECIMAL(12,2)   NOT NULL&#10;&#10;obra_material_total   DECIMAL(12,2) NOT NULL&#10;&#10;&#10;&#10;&#10;&#10;" style="text;strokeColor=none;fillColor=none;align=left;verticalAlign=top;spacingLeft=4;spacingRight=4;overflow=hidden;rotatable=0;points=[[0,0.5],[1,0.5]];portConstraint=eastwest;" parent="28" vertex="1">
                    <mxGeometry y="78" width="310" height="282" as="geometry"/>
                </mxCell>
                <mxCell id="35" value="" style="fontSize=12;html=1;endArrow=ERmandOne;startArrow=ERmandOne;entryX=0.5;entryY=0;entryDx=0;entryDy=0;exitX=0.477;exitY=1;exitDx=0;exitDy=0;exitPerimeter=0;" parent="1" source="22" target="24" edge="1">
                    <mxGeometry width="100" height="100" relative="1" as="geometry">
                        <mxPoint x="235" y="380" as="sourcePoint"/>
                        <mxPoint x="520" y="460" as="targetPoint"/>
                    </mxGeometry>
                </mxCell>
                <mxCell id="36" value="" style="fontSize=12;html=1;endArrow=ERmandOne;startArrow=ERmandOne;exitX=0.002;exitY=0.821;exitDx=0;exitDy=0;exitPerimeter=0;" parent="1" source="30" target="26" edge="1">
                    <mxGeometry width="100" height="100" relative="1" as="geometry">
                        <mxPoint x="245.22999999999956" y="470.828" as="sourcePoint"/>
                        <mxPoint x="245" y="590" as="targetPoint"/>
                    </mxGeometry>
                </mxCell>
                <mxCell id="37" value="" style="fontSize=12;html=1;endArrow=ERoneToMany;startArrow=ERmandOne;exitX=-0.006;exitY=0.129;exitDx=0;exitDy=0;entryX=1;entryY=0.37;entryDx=0;entryDy=0;entryPerimeter=0;exitPerimeter=0;" parent="1" source="5" target="22" edge="1">
                    <mxGeometry width="100" height="100" relative="1" as="geometry">
                        <mxPoint x="364" y="490" as="sourcePoint"/>
                        <mxPoint x="464" y="390" as="targetPoint"/>
                    </mxGeometry>
                </mxCell>
            </root>
        </mxGraphModel>
    </diagram>
</mxfile>